<svg width="135" height="26" viewBox="0 0 135 26" fill="none" xmlns="http://www.w3.org/2000/svg">
<g clip-path="url(#clip0_1317_1865)">
<path d="M44.1797 20.0334V5.58996L38.0643 20.0334H35.1862L29.1262 5.64542V20.0334H25.889V0.41449H30.3172L36.6807 15.3863L42.9625 0.41449H47.4724V20.0334H44.1797Z" fill="white"/>
<path d="M52.8347 12.3154L56.2938 11.7871C57.0703 11.6791 57.2921 11.2908 57.2921 10.8209C57.2921 9.68535 56.5156 8.77753 54.7438 8.77753C53.0566 8.77753 52.1166 9.85758 51.9765 11.212L49.0575 10.5494C49.3056 8.21415 51.4073 6.15039 54.7292 6.15039C58.8801 6.15039 60.4564 8.50022 60.4564 11.1857V17.8762C60.4485 18.5987 60.5042 19.3206 60.6227 20.0334H57.6278C57.5175 19.4692 57.4715 18.8944 57.4906 18.3199C56.8542 19.3445 55.5261 20.4508 53.3397 20.4508C50.517 20.4508 48.7743 18.5125 48.7743 16.3816C48.7743 13.9734 50.5462 12.6453 52.8347 12.3154ZM57.2921 14.4463V13.8362L53.7892 14.3617C52.7909 14.528 51.9882 15.0827 51.9882 16.189C51.9882 17.1026 52.68 17.9404 53.9556 17.9404C55.7538 17.9317 57.2979 17.0735 57.2979 14.4463H57.2921Z" fill="white"/>
<path d="M62.4442 25.4862L65.6785 18.4308L59.9251 6.55908H63.5505L67.4299 15.0827L71.0554 6.55908H74.459L65.8741 25.4862H62.4442Z" fill="white"/>
<path d="M75.9769 20.0071C76.0698 20.8274 76.469 21.5824 77.0947 22.1209C77.7204 22.6594 78.5264 22.9418 79.3514 22.9116C81.8968 22.9116 83.1695 21.6126 83.1695 18.8716V17.4617C82.5857 18.5126 81.2341 19.4262 79.2696 19.4262C75.6704 19.4262 73.0433 16.659 73.0433 12.8671C73.0433 9.27088 75.5595 6.30804 79.2696 6.30804C81.3713 6.30804 82.6732 7.16624 83.2541 8.27256V6.55908H86.3541V18.7607C86.3541 22.3599 84.4976 25.708 79.436 25.708C75.866 25.708 73.3731 23.4925 73.0141 20.7807L75.9769 20.0071ZM83.2541 12.8671C83.2541 10.5699 81.7946 9.07238 79.795 9.07238C77.7517 9.07238 76.2922 10.5669 76.2922 12.8671C76.2922 15.2199 77.7021 16.6852 79.795 16.6852C81.8413 16.6852 83.2541 15.179 83.2541 12.8671Z" fill="white"/>
<path d="M92.8839 20.4333C89.673 20.4333 87.7902 18.0543 87.7902 15.0652V6.55908H91.0012V14.4726C91.0012 16.1335 91.7747 17.5434 93.713 17.5434C95.5666 17.5434 96.5357 16.2999 96.5357 14.5281V6.55908H99.7466V17.5726C99.7462 18.3948 99.792 19.2164 99.8838 20.0334H96.813C96.7388 19.5397 96.7017 19.041 96.7021 18.5418C96.0365 19.759 94.4602 20.4333 92.8839 20.4333Z" fill="white"/>
<path d="M104.919 12.3154L108.378 11.7871C109.155 11.6791 109.377 11.2908 109.377 10.8209C109.377 9.68535 108.6 8.77753 106.831 8.77753C105.141 8.77753 104.204 9.85758 104.064 11.212L101.13 10.5494C101.378 8.21415 103.48 6.15039 106.802 6.15039C110.953 6.15039 112.529 8.50022 112.529 11.1857V17.8762C112.521 18.5987 112.577 19.3206 112.696 20.0334H109.706C109.596 19.4692 109.55 18.8944 109.569 18.3199C108.933 19.3445 107.605 20.4508 105.418 20.4508C102.596 20.4508 100.853 18.5125 100.853 16.3816C100.853 13.9734 102.625 12.6453 104.919 12.3154ZM109.377 14.4463V13.8362L105.874 14.3617C104.875 14.528 104.076 15.0827 104.076 16.189C104.076 17.1026 104.767 17.9404 106.04 17.9404C107.827 17.9317 109.377 17.0735 109.377 14.4463Z" fill="white"/>
<path d="M122.077 9.74086C121.73 9.68617 121.378 9.65787 121.027 9.65621C118.534 9.65621 117.401 11.0953 117.401 13.6144V20.0363H114.19V6.5591H117.316V8.71628C117.953 7.25676 119.447 6.38104 121.219 6.38104C121.507 6.38217 121.794 6.40952 122.077 6.46278V9.74086Z" fill="white"/>
<path d="M134.86 17.5727C134.859 18.3948 134.905 19.2164 134.997 20.0334H131.941C131.856 19.4533 131.809 18.8682 131.801 18.282C131.164 19.4175 129.757 20.3574 127.845 20.3574C123.969 20.3574 121.368 17.3129 121.368 13.2466C121.368 9.37305 123.995 6.18838 127.79 6.18838C130.143 6.18838 131.331 7.26842 131.745 8.12662V0H134.86V17.5727ZM128.19 17.5435C130.292 17.5435 131.76 15.792 131.76 13.2262C131.76 10.6604 130.324 9.04904 128.219 9.04904C126.114 9.04904 124.567 10.6808 124.567 13.2554C124.567 15.83 126.006 17.5435 128.193 17.5435H128.19Z" fill="white"/>
<path opacity="0.3" d="M10.5611 0.131377C10.0876 0.130471 9.61859 0.223386 9.18119 0.404756C8.7438 0.586126 8.34668 0.852357 8.01276 1.18807C7.99232 1.20559 7.97773 1.22894 7.95729 1.24645L7.90475 1.18807C7.40059 0.684226 6.75838 0.341141 6.05929 0.202174C5.36019 0.0632073 4.63559 0.134596 3.97706 0.407318C3.31853 0.680041 2.75562 1.14186 2.35947 1.7344C1.96333 2.32695 1.75172 3.02363 1.7514 3.7364V6.65544H3.75387V3.7364C3.75387 3.52556 3.7954 3.31679 3.87608 3.12201C3.95676 2.92722 4.07502 2.75024 4.2241 2.60116C4.37318 2.45207 4.55017 2.33381 4.74496 2.25313C4.93974 2.17245 5.14851 2.13092 5.35934 2.13092C5.57018 2.13092 5.77895 2.17245 5.97373 2.25313C6.16852 2.33381 6.3455 2.45207 6.49459 2.60116C6.64367 2.75024 6.76193 2.92722 6.84261 3.12201C6.92329 3.31679 6.96482 3.52556 6.96482 3.7364V6.65544H8.96728V3.7364C8.96728 3.3106 9.13643 2.90224 9.43752 2.60116C9.7386 2.30007 10.147 2.13092 10.5728 2.13092C10.9986 2.13092 11.4069 2.30007 11.708 2.60116C12.0091 2.90224 12.1782 3.3106 12.1782 3.7364V8.26676H14.1807V3.7364C14.1807 3.26175 14.087 2.79177 13.9049 2.35344C13.7228 1.9151 13.456 1.51704 13.1197 1.18209C12.7834 0.847141 12.3842 0.581901 11.9451 0.401593C11.5061 0.221284 11.0357 0.129456 10.5611 0.131377Z" fill="url(#paint0_linear_1317_1865)"/>
<path d="M14.7733 7.24213V4.22676C14.773 3.51399 14.5614 2.81731 14.1652 2.22476C13.7691 1.63222 13.2062 1.1704 12.5476 0.897679C11.8891 0.624957 11.1645 0.553568 10.4654 0.692535C9.76631 0.831502 9.12411 1.17459 8.61994 1.67843L8.5674 1.73681C8.54696 1.71638 8.53237 1.69595 8.51194 1.67843C8.00777 1.17459 7.36556 0.831502 6.66647 0.692535C5.96738 0.553568 5.24278 0.624957 4.58425 0.897679C3.92571 1.1704 3.3628 1.63222 2.96666 2.22476C2.57051 2.81731 2.35891 3.51399 2.35859 4.22676V7.1458H4.36105V4.22676C4.36105 3.80096 4.5302 3.3926 4.83129 3.09152C5.13237 2.79043 5.54073 2.62128 5.96653 2.62128C6.39233 2.62128 6.80069 2.79043 7.10177 3.09152C7.40286 3.3926 7.572 3.80096 7.572 4.22676V7.1458H9.57447V4.22676C9.57447 3.80096 9.74362 3.3926 10.0447 3.09152C10.3458 2.79043 10.7541 2.62128 11.1799 2.62128C11.6057 2.62128 12.0141 2.79043 12.3152 3.09152C12.6163 3.3926 12.7854 3.80096 12.7854 4.22676V7.18667H2.91904C2.14487 7.18667 1.4024 7.49421 0.854968 8.04164C0.307541 8.58907 0 9.33154 0 10.1057L0 17.2603C0 18.0345 0.307541 18.7769 0.854968 19.3244C1.4024 19.8718 2.14487 20.1793 2.91904 20.1793H14.2128C14.987 20.1793 15.7295 19.8718 16.2769 19.3244C16.8243 18.7769 17.1319 18.0345 17.1319 17.2603V10.1057C17.1316 9.429 16.8962 8.7734 16.466 8.25105C16.0358 7.7287 15.4374 7.37206 14.7733 7.24213ZM10.2429 12.9372C10.1587 13.2762 9.97346 13.5816 9.71166 13.8129V15.4038C9.71166 15.7075 9.5912 15.9989 9.37669 16.2139C9.16218 16.429 8.87114 16.5502 8.5674 16.551C8.26315 16.551 7.97135 16.4301 7.75622 16.215C7.54108 15.9998 7.42021 15.708 7.42021 15.4038V13.81C7.15841 13.5787 6.97313 13.2733 6.88895 12.9343C6.80692 12.5954 6.83002 12.2397 6.95517 11.9143C7.08031 11.5889 7.30158 11.3093 7.58952 11.1128C7.87674 10.9129 8.21805 10.8052 8.56799 10.8041C8.91793 10.8031 9.2599 10.9086 9.54836 11.1067C9.83682 11.3048 10.0581 11.5861 10.1827 11.9131C10.3073 12.2401 10.3293 12.5974 10.2458 12.9372H10.2429Z" fill="url(#paint1_linear_1317_1865)"/>
</g>
<defs>
<linearGradient id="paint0_linear_1317_1865" x1="1.7514" y1="4.20053" x2="14.1661" y2="4.20053" gradientUnits="userSpaceOnUse">
<stop stop-color="#F6BD1E"/>
<stop offset="0.23" stop-color="#F79E25"/>
<stop offset="0.75" stop-color="#F95C33"/>
<stop offset="1" stop-color="#FA4238"/>
</linearGradient>
<linearGradient id="paint1_linear_1317_1865" x1="0" y1="10.4005" x2="17.1319" y2="10.4005" gradientUnits="userSpaceOnUse">
<stop stop-color="#FA4238"/>
<stop offset="0.25" stop-color="#F95C33"/>
<stop offset="0.77" stop-color="#F79E25"/>
<stop offset="1" stop-color="#F6BD1E"/>
</linearGradient>
<clipPath id="clip0_1317_1865">
<rect width="135" height="25.708" fill="white"/>
</clipPath>
</defs>
</svg>
