<svg width="20" height="20" viewBox="0 0 20 20" fill="none" xmlns="http://www.w3.org/2000/svg">
<path d="M18.1246 7.49398C18.1242 7.44619 18.1183 7.39861 18.107 7.35219C18.1057 7.34681 18.104 7.34151 18.1026 7.33616C18.0978 7.31866 18.0923 7.30131 18.086 7.28413C18.0836 7.27776 18.0812 7.27151 18.0787 7.26521C18.0722 7.24923 18.0648 7.23347 18.0569 7.21787C18.0539 7.2118 18.051 7.20566 18.0478 7.19971C18.0384 7.18274 18.0281 7.16618 18.017 7.14989C18.0146 7.14627 18.0125 7.14245 18.01 7.13891L18.0089 7.13711C17.9954 7.11839 17.981 7.1004 17.9655 7.08324C17.9622 7.07943 17.9584 7.076 17.9549 7.07233C17.9418 7.0583 17.9282 7.04491 17.914 7.03236C17.9093 7.02812 17.9044 7.02415 17.8995 7.02007C17.8851 7.00809 17.8702 6.99681 17.855 6.98624C17.8521 6.98425 17.8496 6.98189 17.8467 6.97994L10.3467 1.97994C10.244 1.91151 10.1234 1.875 10 1.875C9.87662 1.875 9.75599 1.91151 9.65332 1.97994L2.15332 6.97994C2.1505 6.98181 2.14809 6.9841 2.14535 6.98601C2.12986 6.99669 2.11485 7.00811 2.1003 7.02026C2.09553 7.02423 2.09072 7.02812 2.08611 7.0322C2.0718 7.04487 2.05807 7.05838 2.04483 7.07256C2.04144 7.07615 2.03781 7.07951 2.0345 7.08317C2.01907 7.10034 2.00459 7.11835 1.99112 7.13711L1.98998 7.13891C1.98746 7.14245 1.9854 7.14627 1.98296 7.14989C1.9719 7.16618 1.96156 7.18274 1.95225 7.19971C1.94901 7.20566 1.94615 7.2118 1.94306 7.21787C1.93516 7.23347 1.92784 7.24923 1.92131 7.26521C1.9188 7.27151 1.91639 7.27776 1.91403 7.28413C1.9077 7.30134 1.90217 7.31868 1.89743 7.33616C1.89598 7.34151 1.89434 7.34681 1.89305 7.35219C1.88171 7.39861 1.87578 7.44619 1.87539 7.49398C1.87534 7.496 1.875 7.49795 1.875 7.49997V15.625C1.87538 15.9564 2.0072 16.2741 2.24154 16.5084C2.47587 16.7428 2.7936 16.8746 3.125 16.875H16.875C17.2064 16.8746 17.5241 16.7428 17.7585 16.5084C17.9928 16.2741 18.1246 15.9564 18.125 15.625V7.49997C18.125 7.49795 18.1247 7.496 18.1246 7.49398ZM3.125 15.625V8.71316L8.27354 12.3838C8.37947 12.4594 8.50631 12.5 8.6364 12.5H11.3636C11.4937 12.5 11.6205 12.4594 11.7265 12.3838L16.875 8.71316V15.625H3.125Z" fill="#353535"/>
</svg>
