<svg width="20" height="20" viewBox="0 0 20 20" fill="none" xmlns="http://www.w3.org/2000/svg">
<path d="M17.6453 12.7507C17.657 12.7239 17.6667 12.6963 17.6745 12.6681C18.2754 10.9393 18.2752 9.05832 17.6737 7.32975C17.6662 7.30291 17.6569 7.2766 17.6459 7.251C17.0784 5.67846 16.0404 4.31884 14.6729 3.35698C13.3055 2.39512 11.6751 1.8777 10.0033 1.87505L10 1.87219L9.99672 1.87505C8.32506 1.8777 6.69476 2.39502 5.32743 3.35671C3.96009 4.31839 2.92205 5.67779 2.35439 7.25012C2.34304 7.27637 2.33352 7.30337 2.3259 7.33094C1.72435 9.06057 1.72471 10.9427 2.32693 12.6721C2.33419 12.6978 2.34311 12.7231 2.35363 12.7477C2.92095 14.3206 3.95895 15.6805 5.32645 16.6426C6.69395 17.6047 8.3246 18.1223 9.99664 18.125L10 18.1279L10.0034 18.125C11.6749 18.1223 13.305 17.6051 14.6723 16.6435C16.0395 15.682 17.0776 14.3228 17.6453 12.7507ZM10 3.55928C10.9072 4.49928 11.5889 5.63305 11.9939 6.87502H8.00606C8.41105 5.63305 9.09285 4.49928 10 3.55928ZM8.00609 13.125H11.9939C11.5889 14.367 10.9071 15.5007 10 16.4408C9.09287 15.5007 8.41109 14.367 8.00609 13.125ZM7.67887 11.875C7.44037 10.6364 7.44037 9.36364 7.67887 8.12502H12.3211C12.5596 9.36364 12.5596 10.6364 12.3211 11.875H7.67887ZM13.596 8.12502H16.6151C16.9616 9.351 16.9616 10.649 16.6151 11.875H13.596C13.8013 10.6335 13.8013 9.36658 13.596 8.12502ZM16.1228 6.87502H13.3131C12.9389 5.55798 12.2971 4.33228 11.4277 3.27452C12.4283 3.48894 13.3687 3.92324 14.1808 4.54597C14.9928 5.1687 15.6562 5.96426 16.1228 6.87502H16.1228ZM11.4277 16.7255C12.297 15.6677 12.9388 14.442 13.3131 13.125H16.1228C15.6562 14.0358 14.9928 14.8313 14.1808 15.4541C13.3687 16.0768 12.4283 16.5111 11.4277 16.7255Z" fill="#353535"/>
</svg>
