<svg width="20" height="20" viewBox="0 0 20 20" fill="none" xmlns="http://www.w3.org/2000/svg">
<path d="M16.875 3.125H3.125C2.7936 3.12538 2.47587 3.2572 2.24154 3.49154C2.0072 3.72587 1.87538 4.0436 1.875 4.375V15.625C1.87538 15.9564 2.0072 16.2741 2.24154 16.5085C2.47587 16.7428 2.7936 16.8746 3.125 16.875H16.875C17.2064 16.8746 17.5241 16.7428 17.7585 16.5085C17.9928 16.2741 18.1246 15.9564 18.125 15.625V4.375C18.1246 4.0436 17.9928 3.72587 17.7585 3.49154C17.5241 3.2572 17.2064 3.12538 16.875 3.125ZM9.77238 13.7301C9.61185 13.7714 9.4415 13.7472 9.29878 13.6629C9.15606 13.5786 9.05264 13.4411 9.01127 13.2806C8.90709 12.8783 8.67221 12.5219 8.34352 12.2675C8.01483 12.013 7.61095 11.875 7.1953 11.875C6.77964 11.875 6.37577 12.0131 6.04709 12.2675C5.71842 12.522 5.48356 12.8784 5.37941 13.2808C5.35895 13.3602 5.32304 13.4349 5.27372 13.5005C5.2244 13.5661 5.16264 13.6214 5.09197 13.6631C5.02129 13.7049 4.94309 13.7323 4.86183 13.7438C4.78056 13.7553 4.69783 13.7507 4.61834 13.7302C4.53885 13.7098 4.46418 13.6739 4.39857 13.6245C4.33296 13.5752 4.27771 13.5135 4.23597 13.4428C4.19424 13.3721 4.16683 13.2939 4.15531 13.2127C4.14379 13.1314 4.14839 13.0487 4.16885 12.9692C4.35894 12.2298 4.81373 11.586 5.447 11.1597C5.0919 10.8122 4.84837 10.3669 4.74746 9.88049C4.64656 9.39407 4.69286 8.88861 4.88046 8.42861C5.06806 7.96861 5.38845 7.57494 5.80075 7.29781C6.21306 7.02069 6.69857 6.87269 7.19535 6.87269C7.69213 6.87269 8.17765 7.02069 8.58995 7.29781C9.00226 7.57494 9.32265 7.96861 9.51025 8.42861C9.69785 8.88861 9.74415 9.39407 9.64324 9.88049C9.54234 10.3669 9.2988 10.8122 8.94371 11.1597C9.57692 11.5859 10.0317 12.2297 10.2218 12.969C10.2631 13.1295 10.239 13.2999 10.1547 13.4426C10.0704 13.5853 9.9329 13.6888 9.77238 13.7301ZM15 11.875H11.875C11.7092 11.875 11.5503 11.8092 11.4331 11.6919C11.3158 11.5747 11.25 11.4158 11.25 11.25C11.25 11.0842 11.3158 10.9253 11.4331 10.8081C11.5503 10.6908 11.7092 10.625 11.875 10.625H15C15.1658 10.625 15.3247 10.6908 15.4419 10.8081C15.5592 10.9253 15.625 11.0842 15.625 11.25C15.625 11.4158 15.5592 11.5747 15.4419 11.6919C15.3247 11.8092 15.1658 11.875 15 11.875ZM15 9.375H11.875C11.7092 9.375 11.5503 9.30915 11.4331 9.19194C11.3158 9.07473 11.25 8.91576 11.25 8.75C11.25 8.58424 11.3158 8.42527 11.4331 8.30806C11.5503 8.19085 11.7092 8.125 11.875 8.125H15C15.1658 8.125 15.3247 8.19085 15.4419 8.30806C15.5592 8.42527 15.625 8.58424 15.625 8.75C15.625 8.91576 15.5592 9.07473 15.4419 9.19194C15.3247 9.30915 15.1658 9.375 15 9.375Z" fill="#353535"/>
<path d="M7.19531 10.625C7.88567 10.625 8.44531 10.0654 8.44531 9.375C8.44531 8.68464 7.88567 8.125 7.19531 8.125C6.50496 8.125 5.94531 8.68464 5.94531 9.375C5.94531 10.0654 6.50496 10.625 7.19531 10.625Z" fill="#353535"/>
</svg>
