<svg width="20" height="20" viewBox="0 0 20 20" fill="none" xmlns="http://www.w3.org/2000/svg">
<path d="M15.8333 3.33335H14.1666V2.50002C14.1666 2.27901 14.0788 2.06704 13.9225 1.91076C13.7663 1.75448 13.5543 1.66669 13.3333 1.66669C13.1123 1.66669 12.9003 1.75448 12.744 1.91076C12.5878 2.06704 12.5 2.27901 12.5 2.50002V3.33335H7.49996V2.50002C7.49996 2.27901 7.41216 2.06704 7.25588 1.91076C7.0996 1.75448 6.88764 1.66669 6.66663 1.66669C6.44561 1.66669 6.23365 1.75448 6.07737 1.91076C5.92109 2.06704 5.83329 2.27901 5.83329 2.50002V3.33335H4.16663C3.50358 3.33335 2.8677 3.59675 2.39886 4.06559C1.93002 4.53443 1.66663 5.17031 1.66663 5.83335V15.8334C1.66663 16.4964 1.93002 17.1323 2.39886 17.6011C2.8677 18.07 3.50358 18.3334 4.16663 18.3334H15.8333C16.4963 18.3334 17.1322 18.07 17.6011 17.6011C18.0699 17.1323 18.3333 16.4964 18.3333 15.8334V5.83335C18.3333 5.17031 18.0699 4.53443 17.6011 4.06559C17.1322 3.59675 16.4963 3.33335 15.8333 3.33335ZM16.6666 15.8334C16.6666 16.0544 16.5788 16.2663 16.4225 16.4226C16.2663 16.5789 16.0543 16.6667 15.8333 16.6667H4.16663C3.94561 16.6667 3.73365 16.5789 3.57737 16.4226C3.42109 16.2663 3.33329 16.0544 3.33329 15.8334V10H16.6666V15.8334ZM16.6666 8.33335H3.33329V5.83335C3.33329 5.61234 3.42109 5.40038 3.57737 5.2441C3.73365 5.08782 3.94561 5.00002 4.16663 5.00002H5.83329V5.83335C5.83329 6.05437 5.92109 6.26633 6.07737 6.42261C6.23365 6.57889 6.44561 6.66669 6.66663 6.66669C6.88764 6.66669 7.0996 6.57889 7.25588 6.42261C7.41216 6.26633 7.49996 6.05437 7.49996 5.83335V5.00002H12.5V5.83335C12.5 6.05437 12.5878 6.26633 12.744 6.42261C12.9003 6.57889 13.1123 6.66669 13.3333 6.66669C13.5543 6.66669 13.7663 6.57889 13.9225 6.42261C14.0788 6.26633 14.1666 6.05437 14.1666 5.83335V5.00002H15.8333C16.0543 5.00002 16.2663 5.08782 16.4225 5.2441C16.5788 5.40038 16.6666 5.61234 16.6666 5.83335V8.33335Z" fill="#757575"/>
</svg>
