<svg width="25" height="24" viewBox="0 0 25 24" fill="none" xmlns="http://www.w3.org/2000/svg">
<path opacity="0.4" d="M19.3088 9.021C18.8573 9.021 18.2592 9.011 17.5146 9.011C15.6987 9.011 14.2055 7.508 14.2055 5.675V2.459C14.2055 2.206 14.0036 2 13.753 2H8.46363C5.99517 2 4 4.026 4 6.509V17.284C4 19.889 6.09022 22 8.66958 22H16.5463C19.0058 22 21 19.987 21 17.502V9.471C21 9.217 20.799 9.012 20.5475 9.013C20.1247 9.016 19.6177 9.021 19.3088 9.021Z" fill="#FAF9F1"/>
<path opacity="0.4" d="M16.584 2.56725C16.285 2.25625 15.763 2.47025 15.763 2.90125V5.53825C15.763 6.64425 16.674 7.55425 17.78 7.55425C18.477 7.56225 19.445 7.56425 20.267 7.56225C20.688 7.56125 20.902 7.05825 20.61 6.75425C19.555 5.65725 17.666 3.69125 16.584 2.56725Z" fill="#FAF9F1"/>
<path fill-rule="evenodd" clip-rule="evenodd" d="M9.47389 11.3876H12.8589C13.2699 11.3876 13.6039 11.0546 13.6039 10.6436C13.6039 10.2326 13.2699 9.89856 12.8589 9.89856H9.47389C9.06289 9.89856 8.72989 10.2326 8.72989 10.6436C8.72989 11.0546 9.06289 11.3876 9.47389 11.3876ZM9.474 16.3817H14.918C15.329 16.3817 15.663 16.0487 15.663 15.6377C15.663 15.2267 15.329 14.8927 14.918 14.8927H9.474C9.063 14.8927 8.73 15.2267 8.73 15.6377C8.73 16.0487 9.063 16.3817 9.474 16.3817Z" fill="#FAF9F1"/>
</svg>
