<svg width="173" height="32" viewBox="0 0 173 32" fill="none" xmlns="http://www.w3.org/2000/svg">
<path d="M166.575 17.9083L163 21.4916L159.425 17.9083C159.268 17.7514 159.055 17.6632 158.833 17.6632C158.611 17.6632 158.399 17.7514 158.242 17.9083C158.085 18.0652 157.997 18.278 157.997 18.5C157.997 18.7219 158.085 18.9347 158.242 19.0916L162.408 23.2583C162.486 23.3364 162.578 23.3984 162.68 23.4407C162.781 23.483 162.89 23.5048 163 23.5048C163.11 23.5048 163.219 23.483 163.32 23.4407C163.422 23.3984 163.514 23.3364 163.592 23.2583L167.758 19.0916C167.836 19.0139 167.898 18.9217 167.94 18.8202C167.982 18.7186 168.003 18.6098 168.003 18.5C168.003 18.3901 167.982 18.2813 167.94 18.1797C167.898 18.0782 167.836 17.986 167.758 17.9083C167.681 17.8306 167.588 17.769 167.487 17.7269C167.385 17.6849 167.277 17.6632 167.167 17.6632C167.057 17.6632 166.948 17.6849 166.846 17.7269C166.745 17.769 166.653 17.8306 166.575 17.9083ZM159.425 14.0916L163 10.5083L166.575 14.0916C166.652 14.1697 166.745 14.2317 166.846 14.274C166.948 14.3163 167.057 14.3381 167.167 14.3381C167.277 14.3381 167.386 14.3163 167.487 14.274C167.589 14.2317 167.681 14.1697 167.758 14.0916C167.836 14.0141 167.898 13.922 167.941 13.8204C167.983 13.7189 168.005 13.61 168.005 13.4999C168.005 13.3899 167.983 13.281 167.941 13.1795C167.898 13.0779 167.836 12.9858 167.758 12.9083L163.592 8.74162C163.514 8.66351 163.422 8.60151 163.32 8.55921C163.219 8.5169 163.11 8.49512 163 8.49512C162.89 8.49512 162.781 8.5169 162.68 8.55921C162.578 8.60151 162.486 8.66351 162.408 8.74162L158.242 12.9083C158.085 13.0652 157.997 13.278 157.997 13.4999C157.997 13.7219 158.085 13.9347 158.242 14.0916C158.399 14.2485 158.611 14.3367 158.833 14.3367C159.055 14.3367 159.268 14.2485 159.425 14.0916Z" fill="#D5D5D5"/>
<rect width="32" height="32" rx="10" fill="url(#paint0_linear_91_10)"/>
<path d="M22.818 20.031C22.412 21.487 21.663 22.551 20.571 23.223C19.493 23.881 18.219 24.21 16.749 24.21C15.335 24.21 14.117 23.93 13.095 23.37C12.087 22.796 11.31 21.977 10.764 20.913C10.218 19.849 9.945 18.568 9.945 17.07C9.945 15.572 10.218 14.291 10.764 13.227C11.31 12.163 12.087 11.351 13.095 10.791C14.117 10.217 15.328 9.93 16.728 9.93C18.17 9.93 19.43 10.238 20.508 10.854C21.586 11.47 22.3 12.436 22.65 13.752L19.479 15.033C19.283 14.179 18.961 13.591 18.513 13.269C18.079 12.933 17.526 12.765 16.854 12.765C15.846 12.765 15.055 13.129 14.481 13.857C13.921 14.585 13.641 15.656 13.641 17.07C13.641 18.484 13.907 19.555 14.439 20.283C14.985 21.011 15.797 21.375 16.875 21.375C17.547 21.375 18.114 21.193 18.576 20.829C19.052 20.451 19.374 19.877 19.542 19.107L22.818 20.031Z" fill="#FEF0C8"/>
<path d="M51.212 11.354C50.9413 12.3247 50.442 13.034 49.714 13.482C48.9953 13.9207 48.146 14.14 47.166 14.14C46.2233 14.14 45.4113 13.9533 44.73 13.58C44.058 13.1973 43.54 12.6513 43.176 11.942C42.812 11.2327 42.63 10.3787 42.63 9.38C42.63 8.38133 42.812 7.52733 43.176 6.818C43.54 6.10867 44.058 5.56733 44.73 5.194C45.4113 4.81133 46.2187 4.62 47.152 4.62C48.1133 4.62 48.9533 4.82533 49.672 5.236C50.3907 5.64667 50.8667 6.29067 51.1 7.168L48.986 8.022C48.8553 7.45267 48.6407 7.06067 48.342 6.846C48.0527 6.622 47.684 6.51 47.236 6.51C46.564 6.51 46.0367 6.75267 45.654 7.238C45.2807 7.72333 45.094 8.43733 45.094 9.38C45.094 10.3227 45.2713 11.0367 45.626 11.522C45.99 12.0073 46.5313 12.25 47.25 12.25C47.698 12.25 48.076 12.1287 48.384 11.886C48.7013 11.634 48.916 11.2513 49.028 10.738L51.212 11.354ZM56.2893 9.562C56.2893 9.23533 56.196 8.97867 56.0093 8.792C55.832 8.596 55.5893 8.498 55.2813 8.498C54.9733 8.498 54.7073 8.57733 54.4833 8.736C54.2686 8.88533 54.1193 9.156 54.0353 9.548L52.0193 9.072C52.15 8.4 52.4953 7.86333 53.0553 7.462C53.6153 7.06067 54.404 6.86 55.4213 6.86C56.448 6.86 57.2413 7.08867 57.8013 7.546C58.3706 7.994 58.6553 8.652 58.6553 9.52V12.082C58.6553 12.446 58.8186 12.628 59.1453 12.628C59.3133 12.628 59.4486 12.6093 59.5513 12.572L59.4113 13.93C59.1313 14.0607 58.7906 14.126 58.3893 14.126C57.9506 14.126 57.5726 14.042 57.2553 13.874C56.938 13.6967 56.7233 13.4307 56.6113 13.076C56.4153 13.44 56.1026 13.7107 55.6733 13.888C55.2533 14.056 54.8053 14.14 54.3293 14.14C53.6106 14.14 53.0366 13.9767 52.6073 13.65C52.1873 13.314 51.9773 12.8333 51.9773 12.208C51.9773 11.704 52.1266 11.2887 52.4253 10.962C52.7333 10.626 53.214 10.3927 53.8673 10.262L56.2893 9.758V9.562ZM54.3293 11.984C54.3293 12.1893 54.404 12.3433 54.5533 12.446C54.7026 12.5487 54.88 12.6 55.0853 12.6C55.4026 12.6 55.6826 12.5067 55.9253 12.32C56.168 12.124 56.2893 11.8207 56.2893 11.41V11.018L55.1553 11.256C54.8753 11.312 54.6653 11.396 54.5253 11.508C54.3946 11.6107 54.3293 11.7693 54.3293 11.984ZM60.4907 14V7H62.5907L62.6887 8.512C62.8567 7.99867 63.1134 7.59733 63.4587 7.308C63.8134 7.00933 64.2661 6.86 64.8167 6.86C64.9941 6.86 65.1434 6.87867 65.2647 6.916C65.3954 6.944 65.4981 6.97667 65.5727 7.014L65.3347 8.974C65.2414 8.946 65.1201 8.918 64.9707 8.89C64.8307 8.862 64.6581 8.848 64.4527 8.848C64.0234 8.848 63.6501 8.98333 63.3327 9.254C63.0247 9.52467 62.8707 9.93067 62.8707 10.472V14H60.4907ZM71.0003 14.14C70.431 14.14 69.9457 13.986 69.5443 13.678C69.143 13.37 68.8537 12.964 68.6763 12.46L68.5923 14H66.5063V4.032H68.8863V8.204C69.073 7.80267 69.3483 7.48067 69.7123 7.238C70.0857 6.986 70.543 6.86 71.0843 6.86C71.6257 6.86 72.1063 7.00467 72.5263 7.294C72.9463 7.58333 73.2777 8.00333 73.5203 8.554C73.763 9.09533 73.8843 9.75333 73.8843 10.528C73.8843 11.6667 73.6183 12.5533 73.0863 13.188C72.5543 13.8227 71.859 14.14 71.0003 14.14ZM70.1743 12.39C70.585 12.39 70.907 12.2407 71.1403 11.942C71.3737 11.634 71.4903 11.1533 71.4903 10.5C71.4903 9.84667 71.3737 9.37067 71.1403 9.072C70.907 8.764 70.585 8.61 70.1743 8.61C69.773 8.61 69.4557 8.778 69.2223 9.114C68.9983 9.45 68.8863 9.91667 68.8863 10.514C68.8863 11.1207 69.003 11.5873 69.2363 11.914C69.4697 12.2313 69.7823 12.39 70.1743 12.39ZM78.6157 6.86C79.353 6.86 79.997 7.00467 80.5477 7.294C81.1077 7.58333 81.5417 7.99867 81.8497 8.54C82.167 9.08133 82.3257 9.73467 82.3257 10.5C82.3257 11.2653 82.167 11.9187 81.8497 12.46C81.5417 13.0013 81.1077 13.4167 80.5477 13.706C79.997 13.9953 79.353 14.14 78.6157 14.14C77.8877 14.14 77.2437 13.9953 76.6837 13.706C76.133 13.4167 75.699 13.0013 75.3817 12.46C75.0737 11.9187 74.9197 11.2653 74.9197 10.5C74.9197 9.73467 75.0737 9.08133 75.3817 8.54C75.699 7.99867 76.133 7.58333 76.6837 7.294C77.2437 7.00467 77.8877 6.86 78.6157 6.86ZM78.6157 8.554C78.205 8.554 77.883 8.708 77.6497 9.016C77.4257 9.31467 77.3137 9.80933 77.3137 10.5C77.3137 11.1813 77.4257 11.676 77.6497 11.984C77.883 12.292 78.205 12.446 78.6157 12.446C79.0357 12.446 79.3577 12.292 79.5817 11.984C79.815 11.676 79.9317 11.1813 79.9317 10.5C79.9317 9.80933 79.815 9.31467 79.5817 9.016C79.3577 8.708 79.0357 8.554 78.6157 8.554ZM83.6645 14V7H85.7925L85.8625 8.414C86.0772 7.90067 86.3899 7.51333 86.8005 7.252C87.2112 6.99067 87.6965 6.86 88.2565 6.86C88.9752 6.86 89.5585 7.07 90.0065 7.49C90.4545 7.91 90.6785 8.526 90.6785 9.338V14H88.2985V9.968C88.2985 9.48267 88.2052 9.14667 88.0185 8.96C87.8319 8.77333 87.5939 8.68 87.3045 8.68C86.9592 8.68 86.6605 8.80133 86.4085 9.044C86.1659 9.28667 86.0445 9.702 86.0445 10.29V14H83.6645Z" fill="#F5F5F5"/>
<path opacity="0.5" d="M46.296 20.08C47.104 20.08 47.752 20.288 48.24 20.704C48.728 21.12 48.972 21.684 48.972 22.396C48.972 22.964 48.812 23.432 48.492 23.8C48.172 24.168 47.74 24.42 47.196 24.556L49.452 28H48.312L46.152 24.712H44.256V28H43.296V20.08H46.296ZM46.284 23.812C47.404 23.812 47.964 23.34 47.964 22.396C47.964 21.452 47.404 20.98 46.284 20.98H44.256V23.812H46.284ZM53.3813 21.88C53.9493 21.88 54.4493 22.004 54.8813 22.252C55.3213 22.5 55.6653 22.86 55.9133 23.332C56.1613 23.796 56.2853 24.352 56.2853 25C56.2853 25.648 56.1613 26.208 55.9133 26.68C55.6653 27.144 55.3213 27.5 54.8813 27.748C54.4493 27.996 53.9493 28.12 53.3813 28.12C52.8213 28.12 52.3213 27.996 51.8813 27.748C51.4413 27.5 51.0973 27.144 50.8493 26.68C50.6013 26.208 50.4773 25.648 50.4773 25C50.4773 24.352 50.6013 23.796 50.8493 23.332C51.0973 22.86 51.4413 22.5 51.8813 22.252C52.3213 22.004 52.8213 21.88 53.3813 21.88ZM53.3813 22.708C52.7733 22.708 52.2973 22.912 51.9533 23.32C51.6093 23.728 51.4373 24.288 51.4373 25C51.4373 25.712 51.6093 26.272 51.9533 26.68C52.2973 27.088 52.7733 27.292 53.3813 27.292C53.9893 27.292 54.4653 27.088 54.8093 26.68C55.1533 26.272 55.3253 25.712 55.3253 25C55.3253 24.288 55.1533 23.728 54.8093 23.32C54.4653 22.912 53.9893 22.708 53.3813 22.708ZM61.5871 22V22.828H59.4031V26.344C59.4031 26.64 59.4871 26.86 59.6551 27.004C59.8231 27.148 60.0391 27.22 60.3031 27.22C60.5351 27.22 60.7351 27.18 60.9031 27.1C61.0711 27.02 61.2231 26.912 61.3591 26.776L61.6951 27.58C61.5111 27.748 61.2911 27.88 61.0351 27.976C60.7871 28.072 60.4991 28.12 60.1711 28.12C59.8671 28.12 59.5831 28.068 59.3191 27.964C59.0551 27.852 58.8431 27.68 58.6831 27.448C58.5311 27.208 58.4511 26.896 58.4431 26.512V22.828H57.2431V22H58.4431V20.56L59.4031 20.296V22H61.5871ZM63.4944 20.848C63.2784 20.848 63.1024 20.784 62.9664 20.656C62.8384 20.52 62.7744 20.344 62.7744 20.128C62.7744 19.912 62.8384 19.74 62.9664 19.612C63.1024 19.476 63.2784 19.408 63.4944 19.408C63.7104 19.408 63.8824 19.476 64.0104 19.612C64.1464 19.74 64.2144 19.912 64.2144 20.128C64.2144 20.344 64.1464 20.52 64.0104 20.656C63.8824 20.784 63.7104 20.848 63.4944 20.848ZM63.9744 22V28H63.0144V22H63.9744ZM66.2019 28V22H67.0419L67.1019 22.936C67.3179 22.568 67.5979 22.3 67.9419 22.132C68.2939 21.964 68.6539 21.88 69.0219 21.88C69.4459 21.88 69.8459 21.976 70.2219 22.168C70.5979 22.36 70.8859 22.656 71.0859 23.056C71.2139 22.784 71.3939 22.564 71.6259 22.396C71.8579 22.22 72.1099 22.092 72.3819 22.012C72.6619 21.924 72.9259 21.88 73.1739 21.88C73.5579 21.88 73.9219 21.96 74.2659 22.12C74.6179 22.28 74.9059 22.528 75.1299 22.864C75.3539 23.2 75.4659 23.632 75.4659 24.16V28H74.5059V24.256C74.5059 23.712 74.3699 23.32 74.0979 23.08C73.8259 22.84 73.4899 22.72 73.0899 22.72C72.7779 22.72 72.4859 22.796 72.2139 22.948C71.9419 23.1 71.7219 23.324 71.5539 23.62C71.3939 23.916 71.3139 24.28 71.3139 24.712V28H70.3539V24.256C70.3539 23.712 70.2179 23.32 69.9459 23.08C69.6739 22.84 69.3379 22.72 68.9379 22.72C68.6739 22.72 68.4019 22.792 68.1219 22.936C67.8499 23.072 67.6219 23.292 67.4379 23.596C67.2539 23.9 67.1619 24.3 67.1619 24.796V28H66.2019ZM78.1194 20.848C77.9034 20.848 77.7274 20.784 77.5914 20.656C77.4634 20.52 77.3994 20.344 77.3994 20.128C77.3994 19.912 77.4634 19.74 77.5914 19.612C77.7274 19.476 77.9034 19.408 78.1194 19.408C78.3354 19.408 78.5074 19.476 78.6354 19.612C78.7714 19.74 78.8394 19.912 78.8394 20.128C78.8394 20.344 78.7714 20.52 78.6354 20.656C78.5074 20.784 78.3354 20.848 78.1194 20.848ZM78.5994 22V28H77.6394V22H78.5994ZM83.6323 28L86.7163 20.08H87.8563L90.9283 28H89.9083L89.0683 25.804H85.4803L84.6403 28H83.6323ZM86.9083 22.06L85.8283 24.904H88.7203L87.6523 22.096L87.2803 20.992H87.2563L86.9083 22.06ZM92.3582 28V22H93.1982L93.2582 22.936C93.4742 22.568 93.7542 22.3 94.0982 22.132C94.4502 21.964 94.8102 21.88 95.1782 21.88C95.6022 21.88 96.0022 21.976 96.3782 22.168C96.7542 22.36 97.0422 22.656 97.2422 23.056C97.3702 22.784 97.5502 22.564 97.7822 22.396C98.0142 22.22 98.2662 22.092 98.5382 22.012C98.8182 21.924 99.0822 21.88 99.3302 21.88C99.7142 21.88 100.078 21.96 100.422 22.12C100.774 22.28 101.062 22.528 101.286 22.864C101.51 23.2 101.622 23.632 101.622 24.16V28H100.662V24.256C100.662 23.712 100.526 23.32 100.254 23.08C99.9822 22.84 99.6462 22.72 99.2462 22.72C98.9342 22.72 98.6422 22.796 98.3702 22.948C98.0982 23.1 97.8782 23.324 97.7102 23.62C97.5502 23.916 97.4702 24.28 97.4702 24.712V28H96.5102V24.256C96.5102 23.712 96.3742 23.32 96.1022 23.08C95.8302 22.84 95.4942 22.72 95.0942 22.72C94.8302 22.72 94.5582 22.792 94.2782 22.936C94.0062 23.072 93.7782 23.292 93.5942 23.596C93.4102 23.9 93.3182 24.3 93.3182 24.796V28H92.3582ZM107.3 24.124C107.3 23.676 107.18 23.332 106.94 23.092C106.7 22.844 106.36 22.72 105.92 22.72C105.504 22.72 105.152 22.812 104.864 22.996C104.576 23.172 104.364 23.46 104.228 23.86L103.448 23.38C103.608 22.932 103.904 22.572 104.336 22.3C104.768 22.02 105.304 21.88 105.944 21.88C106.376 21.88 106.768 21.956 107.12 22.108C107.472 22.252 107.748 22.476 107.948 22.78C108.156 23.076 108.26 23.46 108.26 23.932V26.836C108.26 27.124 108.412 27.268 108.716 27.268C108.868 27.268 109.016 27.248 109.16 27.208L109.112 27.964C108.952 28.044 108.744 28.084 108.488 28.084C108.192 28.084 107.936 28.012 107.72 27.868C107.512 27.724 107.376 27.504 107.312 27.208C107.104 27.52 106.82 27.752 106.46 27.904C106.1 28.048 105.744 28.12 105.392 28.12C105.04 28.12 104.712 28.06 104.408 27.94C104.104 27.82 103.86 27.64 103.676 27.4C103.5 27.152 103.412 26.848 103.412 26.488C103.412 26.04 103.56 25.672 103.856 25.384C104.16 25.088 104.58 24.888 105.116 24.784L107.3 24.352V24.124ZM104.396 26.44C104.396 26.688 104.492 26.892 104.684 27.052C104.884 27.204 105.164 27.28 105.524 27.28C105.836 27.28 106.124 27.228 106.388 27.124C106.66 27.012 106.88 26.848 107.048 26.632C107.216 26.408 107.3 26.124 107.3 25.78V25.144L105.56 25.504C105.168 25.584 104.876 25.696 104.684 25.84C104.492 25.984 104.396 26.184 104.396 26.44ZM113.101 28.12C112.533 28.12 112.025 27.996 111.577 27.748C111.137 27.5 110.793 27.144 110.545 26.68C110.297 26.208 110.173 25.648 110.173 25C110.173 24.352 110.297 23.796 110.545 23.332C110.793 22.86 111.133 22.5 111.565 22.252C111.997 22.004 112.489 21.88 113.041 21.88C113.601 21.88 114.077 22 114.469 22.24C114.869 22.48 115.173 22.808 115.381 23.224C115.589 23.632 115.693 24.092 115.693 24.604C115.693 24.74 115.689 24.864 115.681 24.976C115.673 25.088 115.661 25.188 115.645 25.276H111.121C111.169 25.908 111.365 26.4 111.709 26.752C112.053 27.104 112.509 27.28 113.077 27.28C113.517 27.28 113.873 27.196 114.145 27.028C114.425 26.86 114.649 26.632 114.817 26.344L115.573 26.788C115.349 27.196 115.025 27.52 114.601 27.76C114.185 28 113.685 28.12 113.101 28.12ZM113.017 22.72C112.513 22.72 112.097 22.872 111.769 23.176C111.449 23.472 111.245 23.888 111.157 24.424H114.733C114.709 23.88 114.541 23.46 114.229 23.164C113.917 22.868 113.513 22.72 113.017 22.72ZM120.002 21.88C120.618 21.88 121.13 22.024 121.538 22.312C121.946 22.592 122.262 22.98 122.486 23.476L121.574 23.908C121.446 23.524 121.25 23.232 120.986 23.032C120.73 22.824 120.394 22.72 119.978 22.72C119.378 22.72 118.906 22.924 118.562 23.332C118.226 23.732 118.058 24.288 118.058 25C118.058 25.712 118.226 26.272 118.562 26.68C118.906 27.08 119.378 27.28 119.978 27.28C120.45 27.28 120.826 27.172 121.106 26.956C121.386 26.74 121.57 26.436 121.658 26.044L122.546 26.356C122.346 26.908 122.03 27.34 121.598 27.652C121.174 27.964 120.642 28.12 120.002 28.12C119.442 28.12 118.942 27.996 118.502 27.748C118.062 27.5 117.718 27.144 117.47 26.68C117.222 26.208 117.098 25.648 117.098 25C117.098 24.352 117.222 23.796 117.47 23.332C117.718 22.86 118.062 22.5 118.502 22.252C118.942 22.004 119.442 21.88 120.002 21.88ZM124.233 28V19.24H125.193V22.9C125.401 22.54 125.677 22.28 126.021 22.12C126.365 21.96 126.741 21.88 127.149 21.88C127.581 21.88 127.973 21.964 128.325 22.132C128.677 22.292 128.957 22.54 129.165 22.876C129.381 23.212 129.489 23.64 129.489 24.16V28H128.529V24.496C128.529 23.832 128.385 23.372 128.097 23.116C127.817 22.852 127.469 22.72 127.053 22.72C126.765 22.72 126.477 22.788 126.189 22.924C125.901 23.06 125.661 23.284 125.469 23.596C125.285 23.9 125.193 24.308 125.193 24.82V28H124.233ZM132.143 20.848C131.927 20.848 131.751 20.784 131.615 20.656C131.487 20.52 131.423 20.344 131.423 20.128C131.423 19.912 131.487 19.74 131.615 19.612C131.751 19.476 131.927 19.408 132.143 19.408C132.359 19.408 132.531 19.476 132.659 19.612C132.795 19.74 132.863 19.912 132.863 20.128C132.863 20.344 132.795 20.52 132.659 20.656C132.531 20.784 132.359 20.848 132.143 20.848ZM132.623 22V28H131.663V22H132.623Z" fill="#F5F5F5"/>
<defs>
<linearGradient id="paint0_linear_91_10" x1="0" y1="19" x2="29" y2="19" gradientUnits="userSpaceOnUse">
<stop stop-color="#F79E25"/>
<stop offset="1" stop-color="#FA4238"/>
</linearGradient>
</defs>
</svg>
