<svg width="32" height="32" viewBox="0 0 32 32" fill="none" xmlns="http://www.w3.org/2000/svg">
<path d="M26.0001 4H6.00012C5.4699 4.00069 4.96159 4.21162 4.58667 4.58655C4.21175 4.96147 4.00081 5.46978 4.00012 6V13.333C4.00012 24.5156 13.4777 28.2236 15.379 28.8535C15.7818 28.9902 16.2184 28.9902 16.6212 28.8535C18.5216 28.2236 28.0001 24.5166 28.0001 13.333V6C27.9994 5.46978 27.7885 4.96147 27.4136 4.58655C27.0387 4.21162 26.5303 4.00069 26.0001 4ZM22.1906 12.7236L14.8566 19.7236C14.6705 19.901 14.4232 20 14.1661 20C13.909 20 13.6618 19.901 13.4757 19.7236L9.80969 16.2236C9.71453 16.133 9.63816 16.0245 9.58495 15.9043C9.53174 15.7842 9.50273 15.6547 9.49959 15.5233C9.49644 15.3919 9.51922 15.2612 9.56662 15.1386C9.61402 15.0161 9.68512 14.904 9.77584 14.8089C9.86656 14.7139 9.97513 14.6376 10.0953 14.5845C10.2156 14.5314 10.3451 14.5025 10.4764 14.4995C10.6078 14.4964 10.7385 14.5193 10.8611 14.5669C10.9836 14.6144 11.0956 14.6856 11.1906 14.7764L14.1661 17.6172L20.8097 11.2764C20.9047 11.1856 21.0167 11.1144 21.1392 11.0669C21.2617 11.0193 21.3924 10.9964 21.5238 10.9995C21.6552 11.0025 21.7847 11.0314 21.9049 11.0845C22.0251 11.1376 22.1337 11.2139 22.2244 11.3089C22.3151 11.404 22.3862 11.5161 22.4336 11.6386C22.481 11.7612 22.5038 11.8919 22.5007 12.0233C22.4975 12.1547 22.4685 12.2842 22.4153 12.4043C22.3621 12.5245 22.2857 12.633 22.1905 12.7236H22.1906Z" fill="#05B035"/>
</svg>
