<svg width="32" height="32" viewBox="0 0 32 32" fill="none" xmlns="http://www.w3.org/2000/svg">
<path d="M25.9999 4H5.99988C5.46963 4.00061 4.96128 4.21151 4.58633 4.58646C4.21139 4.9614 4.00048 5.46975 3.99988 6V13.3334C3.99988 24.515 13.4781 28.2239 15.3782 28.8539C15.7814 28.9906 16.2184 28.9906 16.6216 28.8539C18.5216 28.2239 27.9999 24.515 27.9999 13.3334V6C27.9993 5.46975 27.7884 4.9614 27.4134 4.58646C27.0385 4.21151 26.5301 4.00061 25.9999 4ZM14.9999 11C14.9999 10.7348 15.1052 10.4804 15.2928 10.2929C15.4803 10.1054 15.7347 10 15.9999 10C16.2651 10 16.5194 10.1054 16.707 10.2929C16.8945 10.4804 16.9999 10.7348 16.9999 11V16C16.9999 16.2652 16.8945 16.5196 16.707 16.7071C16.5194 16.8946 16.2651 17 15.9999 17C15.7347 17 15.4803 16.8946 15.2928 16.7071C15.1052 16.5196 14.9999 16.2652 14.9999 16V11ZM15.9999 22C15.7032 22 15.4132 21.912 15.1665 21.7472C14.9198 21.5824 14.7276 21.3481 14.6141 21.074C14.5005 20.7999 14.4708 20.4983 14.5287 20.2074C14.5866 19.9164 14.7294 19.6491 14.9392 19.4393C15.149 19.2296 15.4163 19.0867 15.7072 19.0288C15.9982 18.9709 16.2998 19.0007 16.5739 19.1142C16.848 19.2277 17.0823 19.42 17.2471 19.6666C17.4119 19.9133 17.4999 20.2033 17.4999 20.5C17.4999 20.8978 17.3418 21.2794 17.0605 21.5607C16.7792 21.842 16.3977 22 15.9999 22Z" fill="#FFBF00"/>
</svg>
