<svg width="25" height="24" viewBox="0 0 25 24" fill="none" xmlns="http://www.w3.org/2000/svg">
<path opacity="0.4" d="M7.20552 12.8905C6.68941 12.8905 6.2716 13.3145 6.2716 13.8383L6.01413 18.417C6.01413 19.0846 6.5478 19.625 7.20552 19.625C7.86325 19.625 8.39574 19.0846 8.39574 18.417L8.13944 13.8383C8.13944 13.3145 7.72164 12.8905 7.20552 12.8905Z" fill="#FAF9F1"/>
<path d="M8.48037 3.67345C8.48037 3.67345 8.21236 3.39789 8.04618 3.27793C7.80509 3.09264 7.50783 3 7.21173 3C6.87936 3 6.57039 3.10452 6.31877 3.30169C6.27313 3.34801 6.07886 3.5226 5.91852 3.68532C4.91204 4.6367 3.26539 7.12026 2.76215 8.42083C2.68257 8.618 2.51053 9.11685 2.5 9.38409C2.5 9.63827 2.55618 9.88294 2.67087 10.1145C2.8312 10.4044 3.08282 10.6372 3.38009 10.7642C3.58606 10.8462 4.20282 10.9733 4.21453 10.9733C4.88981 11.1016 5.98757 11.1704 7.20003 11.1704C8.35514 11.1704 9.40727 11.1016 10.0931 10.997C10.1048 10.9852 10.8702 10.8581 11.1335 10.7179C11.6133 10.4626 11.9118 9.96371 11.9118 9.43041V9.38409C11.9001 9.03608 11.6016 8.30444 11.5911 8.30444C11.0879 7.07394 9.52079 4.64858 8.48037 3.67345Z" fill="#FAF9F1"/>
<path opacity="0.4" d="M17.7947 11.1096C18.3108 11.1096 18.7286 10.6856 18.7286 10.1618L18.9849 5.58295C18.9849 4.91543 18.4524 4.375 17.7947 4.375C17.1369 4.375 16.6033 4.91543 16.6033 5.58295L16.8607 10.1618C16.8607 10.6856 17.2786 11.1096 17.7947 11.1096Z" fill="#FAF9F1"/>
<path d="M22.3291 13.8853C22.1688 13.5955 21.9172 13.3638 21.6199 13.2356C21.4139 13.1536 20.796 13.0265 20.7855 13.0265C20.1102 12.8982 19.0124 12.8293 17.8 12.8293C16.6448 12.8293 15.5927 12.8982 14.9069 13.0028C14.8952 13.0146 14.1298 13.1429 13.8665 13.2819C13.3855 13.5373 13.0882 14.0361 13.0882 14.5706V14.6169C13.0999 14.9649 13.3972 15.6954 13.4089 15.6954C13.9121 16.9259 15.478 19.3525 16.5196 20.3265C16.5196 20.3265 16.7876 20.6021 16.9538 20.7208C17.1937 20.9073 17.491 21 17.7894 21C18.1206 21 18.4284 20.8954 18.6812 20.6983C18.7269 20.652 18.9211 20.4773 19.0815 20.3158C20.0868 19.3632 21.7346 16.8796 22.2367 15.5802C22.3174 15.383 22.4895 14.883 22.5 14.6169C22.5 14.3616 22.4438 14.1169 22.3291 13.8853Z" fill="#FAF9F1"/>
</svg>
