<svg width="14" height="14" viewBox="0 0 14 14" fill="none" xmlns="http://www.w3.org/2000/svg">
<path d="M6.99998 0.333252C3.33331 0.333252 0.333313 3.33325 0.333313 6.99992C0.333313 10.6666 3.33331 13.6666 6.99998 13.6666C10.6666 13.6666 13.6666 10.6666 13.6666 6.99992C13.6666 3.33325 10.6666 0.333252 6.99998 0.333252ZM9.46665 7.46659L7.46665 9.46659C7.19998 9.73325 6.79998 9.73325 6.53331 9.46659C6.26665 9.19992 6.26665 8.79992 6.53331 8.53325L7.39998 7.66659H4.99998C4.59998 7.66659 4.33331 7.39992 4.33331 6.99992C4.33331 6.59992 4.59998 6.33325 4.99998 6.33325H7.39998L6.53331 5.46659C6.26665 5.19992 6.26665 4.79992 6.53331 4.53325C6.79998 4.26659 7.19998 4.26659 7.46665 4.53325L9.46665 6.53325C9.73331 6.79992 9.73331 7.19992 9.46665 7.46659Z" fill="#555555"/>
</svg>
