<svg width="18" height="16" viewBox="0 0 18 16" fill="none" xmlns="http://www.w3.org/2000/svg">
<path d="M17.1246 6.49398C17.1242 6.44619 17.1183 6.39861 17.107 6.35219C17.1057 6.34681 17.104 6.34151 17.1026 6.33616C17.0978 6.31866 17.0923 6.30131 17.086 6.28413C17.0836 6.27776 17.0812 6.27151 17.0787 6.26521C17.0722 6.24923 17.0648 6.23347 17.0569 6.21787C17.0539 6.2118 17.051 6.20566 17.0478 6.19971C17.0384 6.18274 17.0281 6.16618 17.017 6.14989C17.0146 6.14627 17.0125 6.14245 17.01 6.13891L17.0089 6.13711C16.9954 6.11839 16.981 6.10041 16.9655 6.08324C16.9622 6.07943 16.9584 6.076 16.9549 6.07233C16.9418 6.0583 16.9282 6.04491 16.914 6.03236C16.9093 6.02812 16.9044 6.02415 16.8995 6.02007C16.8851 6.00809 16.8702 5.99682 16.855 5.98624C16.8521 5.98425 16.8496 5.98189 16.8467 5.97994L9.34668 0.979943C9.24401 0.911514 9.12338 0.875 9 0.875C8.87662 0.875 8.75599 0.911514 8.65332 0.979943L1.15332 5.97994C1.1505 5.98181 1.14809 5.9841 1.14535 5.98601C1.12986 5.99669 1.11485 6.00811 1.1003 6.02026C1.09553 6.02423 1.09072 6.02812 1.08611 6.0322C1.0718 6.04487 1.05807 6.05838 1.04483 6.07256C1.04144 6.07615 1.03781 6.07951 1.0345 6.08317C1.01907 6.10035 1.00459 6.11835 0.991123 6.13711L0.989979 6.13891C0.987461 6.14245 0.985402 6.14627 0.98296 6.14989C0.971897 6.16618 0.961559 6.18274 0.952251 6.19971C0.949009 6.20566 0.946148 6.2118 0.943058 6.21787C0.935162 6.23347 0.927837 6.24923 0.921314 6.26521C0.918797 6.27151 0.916392 6.27776 0.914028 6.28413C0.907696 6.30134 0.902165 6.31868 0.897434 6.33616C0.895984 6.34151 0.894345 6.34681 0.893048 6.35219C0.88171 6.39861 0.875783 6.44619 0.875385 6.49398C0.875343 6.496 0.875 6.49795 0.875 6.49997V14.625C0.875379 14.9564 1.0072 15.2741 1.24154 15.5084C1.47587 15.7428 1.7936 15.8746 2.125 15.875H15.875C16.2064 15.8746 16.5241 15.7428 16.7585 15.5084C16.9928 15.2741 17.1246 14.9564 17.125 14.625V6.49997C17.125 6.49795 17.1247 6.496 17.1246 6.49398ZM2.125 14.625V7.71316L7.27354 11.3838C7.37947 11.4594 7.50631 11.5 7.6364 11.5H10.3636C10.4937 11.5 10.6205 11.4594 10.7265 11.3838L15.875 7.71316V14.625H2.125Z" fill="#D5D5D5"/>
</svg>
